<svg xmlns="http://www.w3.org/2000/svg" width="13" height="22" viewBox="0 0 13 22">
    <g fill="none" fill-rule="evenodd">
        <g fill="currentColor">
            <g>
                <g>
                    <path d="M16.548 22.5c-.257 0-.483-.072-.678-.216l-.14-.121-9.345-9.344C6.128 12.594 6 12.32 6 12c0-.268.09-.502.268-.702l9.461-9.46c.225-.226.498-.338.82-.338.256 0 .482.072.677.216l.141.121 1.06 1.06c.224.225.345.497.36.819.014.256-.05.483-.192.678l-.12.14L11.009 12l7.466 7.466c.225.224.329.497.313.818-.013.257-.093.483-.24.679l-.121.14-1.06 1.06c-.225.225-.498.337-.819.337z" transform="translate(-629 -209) translate(180 198) translate(443 10)"/>
                </g>
            </g>
        </g>
    </g>
</svg>
