<svg xmlns="http://www.w3.org/2000/svg" width="16" height="16" viewBox="0 0 16 16">
    <g fill="none" fill-rule="evenodd">
        <g>
            <g>
                <g>
                    <path d="M0 0H16V16H0z" transform="translate(-483 -879) translate(467 863) translate(16 16)"/>
                    <path fill="currentColor" d="M14.5 4.25c.146 0 .266-.047.36-.14.093-.094.14-.214.14-.36V2.5c0-.146-.047-.266-.14-.36-.094-.093-.214-.14-.36-.14h-13c-.146 0-.266.047-.36.14-.093.094-.14.214-.14.36v1.25c0 .146.047.266.14.36.094.093.214.14.36.14h13zm0 5c.146 0 .266-.047.36-.14.093-.094.14-.214.14-.36V7.5c0-.146-.047-.266-.14-.36-.094-.093-.214-.14-.36-.14h-13c-.146 0-.266.047-.36.14-.093.094-.14.214-.14.36v1.25c0 .146.047.266.14.36.094.093.214.14.36.14h13zm0 5c.146 0 .266-.047.36-.14.093-.094.14-.214.14-.36V12.5c0-.146-.047-.266-.14-.36-.094-.093-.214-.14-.36-.14h-13c-.146 0-.266.047-.36.14-.093.094-.14.214-.14.36v1.25c0 .146.047.266.14.36.094.093.214.14.36.14h13z" transform="translate(-483 -879) translate(467 863) translate(16 16)"/>
                </g>
            </g>
        </g>
    </g>
</svg>
