<svg xmlns="http://www.w3.org/2000/svg" width="16" height="16" viewBox="0 0 16 16">
    <g fill="none" fill-rule="evenodd">
        <g fill="currentColor">
            <g>
                <g>
                    <g>
                        <path d="M17.199 19.5c.37 0 .696-.128.98-.384l.937-.937c.256-.284.384-.61.384-.98s-.128-.682-.384-.938L14.856 12l4.26-4.261c.256-.256.384-.569.384-.938 0-.37-.128-.696-.384-.98l-.937-.937c-.284-.256-.61-.384-.98-.384s-.682.128-.938.384L12 9.144l-4.261-4.26C7.483 4.628 7.17 4.5 6.8 4.5c-.37 0-.696.128-.98.384l-.937.937c-.256.284-.384.61-.384.98s.128.682.384.938L9.144 12l-4.26 4.261c-.256.256-.384.569-.384.938 0 .37.128.696.384.98l.937.937c.284.256.61.384.98.384s.682-.128.938-.384L12 14.856l4.261 4.26c.256.256.569.384.938.384z" transform="translate(-852 -2587) translate(72 2362) translate(0 208) translate(776 13)"/>
                    </g>
                </g>
            </g>
        </g>
    </g>
</svg>
