<svg xmlns="http://www.w3.org/2000/svg" width="16" height="16" viewBox="0 0 16 16">
    <g fill="none" fill-rule="evenodd">
        <g>
            <g>
                <g>
                    <path d="M0 0H16V16H0z" transform="translate(-1178 -319) translate(1040 317) translate(138 2)"/>
                    <path fill="currentColor" d="M8.5 5c.146 0 .266-.047.36-.14.093-.094.14-.214.14-.36V4h6.5c.146 0 .266-.047.36-.14.093-.094.14-.214.14-.36v-1c0-.146-.047-.266-.14-.36-.094-.093-.214-.14-.36-.14H9v-.5c0-.146-.047-.266-.14-.36C8.765 1.048 8.645 1 8.5 1h-1c-.146 0-.266.047-.36.14-.093.094-.14.214-.14.36V2H.5c-.146 0-.266.047-.36.14-.093.094-.14.214-.14.36v1c0 .146.047.266.14.36.094.093.214.14.36.14H7v.5c0 .146.047.266.14.36.094.093.214.14.36.14h1zm4 5c.146 0 .266-.047.36-.14.093-.094.14-.214.14-.36V9h2.5c.146 0 .266-.047.36-.14.093-.094.14-.214.14-.36v-1c0-.146-.047-.266-.14-.36-.094-.093-.214-.14-.36-.14H13v-.5c0-.146-.047-.266-.14-.36-.094-.093-.214-.14-.36-.14h-1c-.146 0-.266.047-.36.14-.093.094-.14.214-.14.36V7H.5c-.146 0-.266.047-.36.14-.093.094-.14.214-.14.36v1c0 .146.047.266.14.36.094.093.214.14.36.14H11v.5c0 .146.047.266.14.36.094.093.214.14.36.14h1zm-8 5c.146 0 .266-.047.36-.14.093-.094.14-.214.14-.36V14h10.5c.146 0 .266-.047.36-.14.093-.094.14-.214.14-.36v-1c0-.146-.047-.266-.14-.36-.094-.093-.214-.14-.36-.14H5v-.5c0-.146-.047-.266-.14-.36-.094-.093-.214-.14-.36-.14h-1c-.146 0-.266.047-.36.14-.093.094-.14.214-.14.36v.5H.5c-.146 0-.266.047-.36.14-.093.094-.14.214-.14.36v1c0 .146.047.266.14.36.094.093.214.14.36.14H3v.5c0 .146.047.266.14.36.094.093.214.14.36.14h1z" transform="translate(-1178 -319) translate(1040 317) translate(138 2)"/>
                </g>
            </g>
        </g>
    </g>
</svg>
