<svg xmlns="http://www.w3.org/2000/svg" width="16" height="16" viewBox="0 0 16 16">
    <g fill="none" fill-rule="evenodd">
        <g>
            <g>
                <g>
                    <path d="M0 0H16V16H0z" transform="translate(-606 -314) translate(590 298) translate(16 16)"/>
                    <path fill="currentColor" d="M8.027 13.875c.237 0 .447-.091.63-.273l5.277-5.47c.783-.783 1.148-1.74 1.093-2.87-.054-1.13-.51-2.06-1.367-2.79-.747-.637-1.609-.915-2.584-.833-.975.082-1.81.478-2.502 1.19l-.547.546-.547-.547c-.692-.71-1.526-1.107-2.501-1.19-.976-.081-1.837.197-2.584.835-.857.729-1.313 1.659-1.368 2.789-.054 1.13.31 2.087 1.094 2.87l5.277 5.47c.183.182.392.273.63.273z" transform="translate(-606 -314) translate(590 298) translate(16 16)"/>
                </g>
            </g>
        </g>
    </g>
</svg>
