<svg xmlns="http://www.w3.org/2000/svg" width="12" height="12" viewBox="0 0 12 12">
    <g fill="none" fill-rule="evenodd">
        <g fill="currentColor">
            <g>
                <g>
                    <g>
                        <path d="M12.127 14c.312 0 .578-.11.797-.328.219-.219.328-.485.328-.797v-3.75c0-.313-.11-.578-.328-.797-.219-.219-.485-.328-.797-.328H6.314V5.586c0-.469.164-.871.493-1.207.328-.336.718-.504 1.171-.504.47 0 .872.164 1.207.492.336.328.504.727.504 1.196v.375c0 .156.055.289.164.398.11.11.243.164.399.164h.75c.156 0 .289-.055.398-.164.11-.11.164-.242.164-.399v-.375c0-.984-.351-1.824-1.054-2.519C9.807 2.348 8.967 2 7.99 2c-.976 0-1.812.352-2.508 1.055-.695.703-1.043 1.554-1.043 2.554V8h-.562c-.313 0-.578.11-.797.328-.219.219-.328.485-.328.797v3.75c0 .313.11.578.328.797.219.219.484.328.797.328h8.25z" transform="translate(-1223 -42) translate(73) translate(624 24) translate(524 16)"/>
                    </g>
                </g>
            </g>
        </g>
    </g>
</svg>
