<svg xmlns="http://www.w3.org/2000/svg" width="14" height="14" viewBox="0 0 14 14">
    <g fill="none" fill-rule="evenodd">
        <g fill="currentColor">
            <g>
                <g>
                    <g>
                        <g>
                            <path d="M8.5 15c.27 0 .505-.099.703-.297.198-.198.297-.432.297-.703V9.5H14c.27 0 .505-.099.703-.297.198-.198.297-.432.297-.703v-1c0-.27-.099-.505-.297-.703-.198-.198-.432-.297-.703-.297H9.5V2c0-.27-.099-.505-.297-.703C9.005 1.099 8.771 1 8.5 1h-1c-.27 0-.505.099-.703.297-.198.198-.297.432-.297.703v4.5H2c-.27 0-.505.099-.703.297C1.099 6.995 1 7.229 1 7.5v1c0 .27.099.505.297.703.198.198.432.297.703.297h4.5V14c0 .27.099.505.297.703.198.198.432.297.703.297h1z" transform="translate(-368 -3374) translate(0 2855) translate(351 446) translate(0 56) translate(16 16)"/>
                        </g>
                    </g>
                </g>
            </g>
        </g>
    </g>
</svg>
