<svg xmlns="http://www.w3.org/2000/svg" width="24" height="24" viewBox="0 0 24 24">
    <g fill="none" fill-rule="evenodd">
        <g>
            <g>
                <g>
                    <path d="M0 0H24V24H0z" transform="translate(-1277 -462) translate(1265 450) translate(12 12)"/>
                    <path fill="currentColor" d="M12 14.065c.565 0 1.044-.198 1.44-.593.395-.395.592-.875.592-1.44 0-.564-.197-1.044-.592-1.44-.396-.394-.875-.592-1.44-.592s-1.044.198-1.44.593c-.395.395-.592.875-.592 1.44 0 .564.197 1.044.592 1.439.396.395.875.593 1.44.593zm4.968 0c.564 0 1.044-.198 1.44-.593.394-.395.592-.875.592-1.44 0-.564-.198-1.044-.593-1.44-.395-.394-.875-.592-1.44-.592-.564 0-1.044.198-1.439.593-.395.395-.593.875-.593 1.44 0 .564.198 1.044.593 1.439.395.395.875.593 1.44.593zm-9.936 0c.565 0 1.045-.198 1.44-.593.395-.395.593-.875.593-1.44 0-.564-.198-1.044-.593-1.44-.395-.394-.875-.592-1.44-.592-.564 0-1.044.198-1.44.593-.394.395-.592.875-.592 1.44 0 .564.198 1.044.593 1.439.395.395.875.593 1.44.593z" transform="translate(-1277 -462) translate(1265 450) translate(12 12)"/>
                </g>
            </g>
        </g>
    </g>
</svg>
