<svg xmlns="http://www.w3.org/2000/svg" width="22" height="13" viewBox="0 0 22 13">
    <g fill="none" fill-rule="evenodd">
        <g fill="currentColor">
            <g>
                <g>
                    <g>
                        <g>
                            <g>
                                <g>
                                    <path d="M22.003 19c.731 0 1.002-.339.813-1.016-.082-.216-.224-.487-.427-.812-.203-.325-.433-.643-.69-.955-.258-.311-.535-.63-.833-.954-.298-.325-.57-.61-.813-.854-.244-.243-.454-.46-.63-.65l-.264-.284c-.162-.27-.243-.46-.243-.569 0-.108.08-.284.243-.528.027-.027.271-.386.732-1.076.46-.691.968-1.497 1.523-2.418.555-.92.873-1.584.955-1.99.162-.596-.081-.894-.732-.894h-2.396c-.488 0-.826.23-1.016.69l-.366.772c-.243.542-.609 1.22-1.097 2.032-.487.812-.988 1.503-1.503 2.072-.487.487-.86.73-1.117.73s-.386-.23-.386-.69V6.894c0-.596-.216-.894-.65-.894H9.328c-.108 0-.21.027-.305.081-.094.054-.169.122-.223.203-.054.082-.081.176-.081.285 0 .108.047.23.142.365.095.136.196.264.305.386.108.122.216.319.325.59.108.27.176.595.203.974v3.535c0 .352-.034.589-.102.71-.068.123-.183.184-.345.184-.433 0-1.063-.65-1.89-1.95-.825-1.3-1.523-2.777-2.091-4.429-.109-.352-.237-.595-.386-.73C4.73 6.067 4.507 6 4.21 6H1.812C1.27 6 1 6.23 1 6.69c0 .271.095.732.284 1.382.19.65.59 1.591 1.199 2.823.61 1.233 1.374 2.472 2.295 3.718.975 1.408 2.113 2.491 3.413 3.25C9.49 18.62 10.777 19 12.05 19c.731 0 1.205-.074 1.422-.223.217-.15.325-.386.325-.711 0-.271-.014-.623-.04-1.057 0-.893.026-1.435.08-1.625.055-.19.244-.284.57-.284.514 0 1.313.515 2.396 1.544.271.27.542.555.813.853.27.298.474.528.609.69.135.163.284.312.447.447.162.136.311.23.447.285.135.054.298.081.487.081h2.397z" transform="translate(-1265 -3382) translate(-280 2743) translate(0 400) translate(351) translate(0 .5) translate(1113 232.5) translate(80)"/>
                                </g>
                            </g>
                        </g>
                    </g>
                </g>
            </g>
        </g>
    </g>
</svg>
