<svg xmlns="http://www.w3.org/2000/svg" width="24" height="24" viewBox="0 0 24 24">
    <g fill="none" fill-rule="evenodd">
        <g>
            <g>
                <g>
                    <path d="M0 0H24V24H0z" transform="translate(-1149 -398) translate(1137 386) translate(12 12)"/>
                    <path fill="currentColor" d="M12 21c2.589 0 4.688-.823 6.296-2.468 1.61-1.645 2.414-3.75 2.414-6.314 0-.484-.049-.992-.145-1.524H12v3.12h5.117c-.073.363-.212.75-.417 1.162-.206.411-.496.828-.871 1.252-.375.423-.896.774-1.56 1.052-.666.278-1.422.418-2.269.418-1.548 0-2.867-.557-3.956-1.67C6.956 14.915 6.411 13.573 6.411 12c0-1.21.333-2.28.998-3.212.666-.931 1.464-1.596 2.395-1.996.932-.399 1.936-.532 3.013-.399 1.076.133 2.002.575 2.776 1.325l2.431-2.36C16.354 3.787 14.347 3 12 3c-2.492 0-4.615.877-6.369 2.631C3.877 7.385 3 9.508 3 12s.877 4.615 2.631 6.369C7.385 20.123 9.508 21 12 21z" transform="translate(-1149 -398) translate(1137 386) translate(12 12)"/>
                </g>
            </g>
        </g>
    </g>
</svg>
