<svg xmlns="http://www.w3.org/2000/svg" width="11" height="20" viewBox="0 0 11 20">
    <g fill="none" fill-rule="evenodd">
        <g fill="currentColor">
            <g>
                <g>
                    <g>
                        <g>
                            <g>
                                <path d="M14.07 22v-8.75H17l.547-3.633H14.07V7.273c0-.546.163-1.009.489-1.386.325-.378.852-.567 1.582-.567h1.562V2.234l-.39-.039c-.26-.052-.625-.097-1.094-.136C15.75 2.019 15.307 2 14.89 2c-.938 0-1.765.189-2.48.566-.717.378-1.27.931-1.661 1.66-.39.73-.586 1.615-.586 2.657v2.734H7v3.633h3.164V22h3.906z" transform="translate(-1191 -3378) translate(-280 2743) translate(0 400) translate(351) translate(0 .5) translate(1113 232.5)"/>
                            </g>
                        </g>
                    </g>
                </g>
            </g>
        </g>
    </g>
</svg>
