<svg xmlns="http://www.w3.org/2000/svg" width="17" height="16" viewBox="0 0 17 16">
    <g fill="none" fill-rule="evenodd">
        <g fill="currentColor">
            <g>
                <g>
                    <path d="M79.707 14.98c.316.237.641.257.977.06l3.878-2.014 3.878 2.013c.336.178.662.153.977-.074.316-.227.445-.527.385-.902l-.74-4.323L92.2 6.69c.277-.276.356-.601.237-.976-.118-.375-.375-.582-.77-.622l-4.322-.651L85.421.533C85.243.178 84.957 0 84.562 0c-.395 0-.68.178-.858.533L81.779 4.44l-4.322.651c-.395.04-.651.247-.77.622-.118.375-.04.7.237.977l3.138 3.05-.74 4.322c-.06.374.07.68.385.917zm8.526-1.628l-3.67-1.954-3.672 1.954.681-4.115-2.96-2.901 4.115-.593 1.835-3.73 1.836 3.73 4.115.593-2.96 2.9.68 4.116z" transform="translate(-533 -475) translate(351 468) translate(106 7)"/>
                </g>
            </g>
        </g>
    </g>
</svg>
