<svg xmlns="http://www.w3.org/2000/svg" width="17" height="16" viewBox="0 0 17 16">
    <g fill="none" fill-rule="evenodd">
        <g fill="currentColor">
            <g>
                <g>
                    <path d="M22.298 14.98c.316.237.641.257.977.06l3.878-2.014 3.879 2.013c.335.178.66.153.977-.074.315-.227.444-.527.384-.902l-.74-4.323 3.138-3.05c.277-.276.356-.601.237-.976-.118-.375-.375-.582-.77-.622l-4.322-.651L28.012.533C27.834.178 27.548 0 27.153 0c-.394 0-.68.178-.858.533L24.37 4.44l-4.322.651c-.395.04-.651.247-.77.622-.118.375-.04.7.237.977l3.138 3.05-.74 4.322c-.06.374.07.68.385.917z" transform="translate(-476 -475) translate(351 468) translate(106 7)"/>
                </g>
            </g>
        </g>
    </g>
</svg>
