<svg xmlns="http://www.w3.org/2000/svg" width="24" height="24" viewBox="0 0 24 24">
    <g fill="none" fill-rule="evenodd">
      <path d="M0 0H24V24H0z" transform="translate(-747 -1042) translate(731 1030) translate(16 12)"/>
      <path fill="currentColor" d="M10.664 15.984c-.737.737-.737 1.934 0 2.671.738.738 1.934.738 2.672 0 .738-.737.738-1.934 0-2.671-.738-.738-1.934-.738-2.672 0zm1.337-4.493c-1.557 0-3.021.606-4.121 1.707-.433.432-.433 1.132 0 1.564.431.432 1.131.432 1.563 0 .683-.683 1.591-1.06 2.558-1.06.966 0 1.874.377 2.556 1.06.217.216.5.324.783.324.283 0 .565-.108.781-.324.432-.432.432-1.132 0-1.564-1.1-1.101-2.564-1.707-4.12-1.707zm0-3.642c-2.53 0-4.908.986-6.697 2.774-.431.432-.431 1.132 0 1.564.432.432 1.132.432 1.564 0C8.238 10.816 10.06 10.06 12 10.06c1.938 0 3.761.755 5.132 2.126.216.216.5.324.782.324.283 0 .566-.108.782-.324.431-.432.431-1.132 0-1.564-1.789-1.788-4.166-2.774-6.695-2.774zm9.276.194C18.799 5.565 15.505 4.2 12 4.2c-3.506 0-6.8 1.365-9.277 3.843-.432.432-.432 1.132 0 1.564.216.216.5.324.782.324.283 0 .566-.108.782-.324C6.348 7.547 9.087 6.412 12 6.412c2.913 0 5.652 1.134 7.711 3.195.432.432 1.132.431 1.564 0 .432-.432.432-1.132 0-1.564z" transform="translate(-747 -1042) translate(731 1030) translate(16 12)"/>
    </g>
</svg>
